<svg xmlns="http://www.w3.org/2000/svg" xmlns:xlink="http://www.w3.org/1999/xlink" width="1000" zoomAndPan="magnify" viewBox="0 0 750 374.999991" height="500" preserveAspectRatio="xMidYMid meet" version="1.0"><defs><g/><clipPath id="11af97cfb5"><path d="M 234.339844 0 L 515.660156 0 L 515.660156 281.320312 L 234.339844 281.320312 Z M 234.339844 0 " clip-rule="nonzero"/></clipPath><clipPath id="4efbe6a21c"><path d="M 375 0 C 297.316406 0 234.339844 62.976562 234.339844 140.660156 C 234.339844 218.34375 297.316406 281.320312 375 281.320312 C 452.683594 281.320312 515.660156 218.34375 515.660156 140.660156 C 515.660156 62.976562 452.683594 0 375 0 Z M 375 0 " clip-rule="nonzero"/></clipPath><clipPath id="982e4df085"><path d="M 304.484375 41.863281 L 445.390625 41.863281 L 445.390625 239.703125 L 304.484375 239.703125 Z M 304.484375 41.863281 " clip-rule="nonzero"/></clipPath></defs><g clip-path="url(#11af97cfb5)"><g clip-path="url(#4efbe6a21c)"><path fill="#ffffff" d="M 234.339844 0 L 515.660156 0 L 515.660156 281.320312 L 234.339844 281.320312 Z M 234.339844 0 " fill-opacity="1" fill-rule="nonzero"/></g></g><g clip-path="url(#982e4df085)"><path fill="#1f2844" d="M 325.769531 232.71875 C 327.511719 230.054688 361.828125 181.121094 364.757812 176.972656 C 367.675781 172.820312 371.007812 168.105469 374.753906 162.824219 C 378.496094 157.546875 382.363281 152.109375 386.363281 146.523438 C 390.363281 140.9375 394.335938 135.425781 398.28125 129.992188 C 402.230469 124.5625 405.816406 119.589844 409.050781 115.074219 C 412.277344 110.566406 415.046875 106.742188 417.355469 103.613281 C 419.660156 100.492188 421.175781 98.414062 421.890625 97.386719 C 422.285156 96.667969 422.878906 96.308594 423.667969 96.308594 C 424.460938 96.308594 425.054688 96.617188 425.449219 97.230469 C 425.847656 97.84375 426.042969 98.511719 426.042969 99.230469 L 426.042969 190.890625 C 426.042969 191.503906 425.792969 192.042969 425.300781 192.503906 C 424.804688 192.964844 424.257812 193.195312 423.660156 193.195312 C 423.066406 193.195312 422.519531 192.992188 422.019531 192.582031 C 421.523438 192.175781 421.273438 191.609375 421.273438 190.890625 L 421.273438 106.300781 L 327.460938 238.5625 C 327.054688 239.175781 326.433594 239.484375 325.617188 239.484375 C 325.003906 239.484375 324.441406 239.253906 323.925781 238.789062 C 323.414062 238.328125 323.15625 237.789062 323.15625 237.175781 C 323.15625 236.871094 324.03125 235.386719 325.769531 232.71875 Z M 305.390625 71.546875 C 305.953125 71.140625 306.546875 70.933594 307.160156 70.933594 C 307.878906 70.933594 308.441406 71.238281 308.851562 71.855469 L 365.140625 150.902344 L 441.269531 42.941406 C 441.664062 42.222656 442.304688 41.863281 443.195312 41.863281 C 443.886719 41.863281 444.433594 42.09375 444.824219 42.554688 C 445.21875 43.019531 445.417969 43.554688 445.417969 44.167969 C 445.417969 44.785156 445.261719 45.300781 444.953125 45.707031 L 340.683594 193.039062 C 340.28125 193.652344 339.660156 193.960938 338.84375 193.960938 C 338.226562 193.960938 337.664062 193.730469 337.148438 193.269531 C 336.640625 192.804688 336.378906 192.214844 336.378906 191.5 C 336.378906 191.09375 336.972656 190.015625 338.148438 188.269531 C 339.332031 186.527344 340.789062 184.402344 342.535156 181.886719 C 344.277344 179.378906 346.226562 176.710938 348.382812 173.890625 C 350.535156 171.074219 352.5625 168.355469 354.457031 165.742188 C 356.359375 163.125 358.019531 160.847656 359.457031 158.894531 C 360.894531 156.945312 361.8125 155.613281 362.226562 154.894531 L 309.160156 80.617188 L 309.160156 191.65625 C 309.160156 192.269531 308.957031 192.808594 308.542969 193.269531 C 308.136719 193.730469 307.625 193.960938 307.007812 193.960938 C 306.394531 193.960938 305.851562 193.730469 305.394531 193.269531 C 304.929688 192.804688 304.703125 192.269531 304.703125 191.65625 L 304.703125 74.003906 C 304.597656 73.90625 304.546875 73.597656 304.546875 73.082031 C 304.546875 72.46875 304.828125 71.957031 305.390625 71.546875 Z M 305.390625 71.546875 " fill-opacity="1" fill-rule="nonzero"/></g><g fill="#ffffff" fill-opacity="1"><g transform="translate(25.262561, 356.342601)"><g><path d="M 79.484375 -0.417969 C 72.828125 -0.5 71.410156 -1.5 71.410156 -12.984375 L 71.410156 -45.359375 C 71.410156 -56.847656 72.828125 -57.84375 79.484375 -57.929688 C 79.984375 -57.929688 80.066406 -58.511719 79.484375 -58.511719 C 73.992188 -58.511719 72.828125 -58.261719 70.664062 -58.261719 L 66.417969 -58.261719 L 42.03125 -23.96875 L 16.730469 -58.261719 L 12.652344 -58.261719 C 10.402344 -58.261719 9.15625 -58.511719 3.414062 -58.511719 C 2.828125 -58.511719 2.914062 -57.84375 3.414062 -57.84375 C 10.402344 -57.84375 11.902344 -56.761719 11.902344 -44.777344 C 11.902344 -35.207031 11.902344 -22.304688 11.984375 -12.902344 C 11.984375 -5.910156 8.90625 -0.332031 2.746094 -0.332031 C 2.332031 -0.332031 2.332031 0.25 2.746094 0.25 C 7.40625 0.25 10.488281 0 12.402344 0 C 14.648438 0 18.3125 0.25 23.886719 0.25 C 24.386719 0.25 24.386719 -0.417969 23.886719 -0.417969 C 16.5625 -0.417969 12.902344 -6.660156 12.902344 -14.648438 L 12.902344 -51.269531 L 40.699219 -14.566406 C 40.78125 -14.398438 40.949219 -14.398438 41.03125 -14.566406 C 41.863281 -16.394531 44.195312 -18.3125 45.445312 -19.308594 L 42.613281 -23.304688 L 64.171875 -53.351562 L 64.171875 -12.902344 C 64.171875 -1.414062 62.753906 -0.417969 56.097656 -0.25 C 55.597656 -0.25 55.515625 0.332031 56.097656 0.332031 C 61.589844 0.25 62.753906 0 64.917969 0 L 70.664062 -0.0820312 C 72.828125 -0.0820312 73.992188 0.167969 79.484375 0.167969 C 80.066406 0.167969 79.984375 -0.417969 79.484375 -0.417969 Z M 79.484375 -0.417969 "/></g></g></g><g fill="#ffffff" fill-opacity="1"><g transform="translate(107.659931, 356.342601)"><g><path d="M 24.46875 0.914062 C 37.621094 0.914062 47.941406 -9.070312 47.941406 -21.640625 C 47.941406 -34.375 39.203125 -42.863281 26.050781 -42.863281 C 12.652344 -42.863281 2.332031 -32.875 2.332031 -20.140625 C 2.332031 -7.40625 11.070312 0.914062 24.46875 0.914062 Z M 26.132812 -0.167969 C 15.898438 -0.167969 9.65625 -11.902344 9.65625 -23.386719 C 9.65625 -35.207031 16.394531 -41.449219 23.304688 -41.699219 C 34.042969 -42.199219 40.53125 -30.210938 40.53125 -18.476562 C 40.53125 -6.410156 33.375 -0.167969 26.132812 -0.167969 Z M 26.132812 -0.167969 "/></g></g></g><g fill="#ffffff" fill-opacity="1"><g transform="translate(157.93065, 356.342601)"><g><path d="M 8.90625 0 L 14.648438 0 C 16.3125 0 17.0625 0.25 21.222656 0.25 C 21.722656 0.25 21.722656 -0.332031 21.222656 -0.332031 C 15.230469 -0.417969 14.980469 -2.664062 14.980469 -9.15625 L 14.980469 -30.546875 C 20.226562 -36.789062 25.050781 -38.867188 30.046875 -38.867188 C 35.871094 -38.867188 39.535156 -36.121094 39.535156 -24.304688 L 39.535156 -9.15625 C 39.535156 -2.664062 39.367188 -0.417969 33.375 -0.332031 C 32.875 -0.332031 32.875 0.25 33.375 0.25 C 37.535156 0.25 38.203125 0 39.949219 0 L 45.691406 0 C 47.523438 0 48.273438 0.25 52.601562 0.25 C 53.101562 0.25 53.101562 -0.332031 52.601562 -0.332031 C 46.277344 -0.417969 46.109375 -2.664062 46.109375 -9.15625 L 46.109375 -24.886719 C 46.109375 -36.953125 43.03125 -42.863281 33.375 -42.863281 C 27.132812 -42.863281 19.558594 -37.871094 14.898438 -31.460938 L 14.816406 -31.460938 C 14.730469 -35.871094 14.148438 -40.367188 12.402344 -42.863281 C 12.234375 -43.03125 12.070312 -43.03125 11.902344 -42.863281 C 9.90625 -41.53125 6.660156 -39.785156 2.828125 -39.117188 C 2.582031 -39.035156 2.582031 -38.703125 2.828125 -38.535156 C 7.90625 -37.953125 8.488281 -33.957031 8.488281 -27.964844 L 8.488281 -9.15625 C 8.488281 -2.664062 8.238281 -0.417969 1.996094 -0.332031 C 1.5 -0.332031 1.5 0.25 1.996094 0.25 C 6.324219 0.25 7.074219 0 8.90625 0 Z M 8.90625 0 "/></g></g></g><g fill="#ffffff" fill-opacity="1"><g transform="translate(212.02994, 356.342601)"><g><path d="M 18.3125 0.914062 C 22.972656 0.914062 25.800781 -2.164062 29.214844 -7.324219 C 29.378906 -7.574219 28.964844 -7.824219 28.796875 -7.574219 C 26.300781 -3.578125 24.054688 -1.832031 21.222656 -1.832031 C 17.894531 -1.832031 15.648438 -4.742188 15.648438 -10.238281 L 15.648438 -40.949219 L 27.132812 -40.949219 L 27.382812 -41.863281 L 15.730469 -41.863281 L 15.730469 -55.847656 C 15.730469 -56.097656 15.398438 -56.179688 15.3125 -55.847656 C 13.816406 -48.355469 9.65625 -43.777344 2.828125 -41.53125 L 2.828125 -40.949219 L 9.15625 -40.949219 L 9.15625 -10.238281 C 9.15625 -1.914062 12.902344 0.914062 18.3125 0.914062 Z M 18.3125 0.914062 "/></g></g></g><g fill="#ffffff" fill-opacity="1"><g transform="translate(243.740445, 356.342601)"><g><path d="M 11.152344 -50.019531 C 13.984375 -50.019531 15.730469 -51.851562 15.730469 -54.265625 C 15.730469 -56.761719 13.734375 -58.511719 11.152344 -58.511719 C 8.488281 -58.511719 6.660156 -56.597656 6.660156 -54.265625 C 6.660156 -51.769531 8.65625 -50.019531 11.152344 -50.019531 Z M 8.824219 0 L 14.566406 0 C 16.394531 0 17.144531 0.25 21.472656 0.25 C 21.972656 0.25 21.972656 -0.332031 21.472656 -0.332031 C 15.230469 -0.417969 14.980469 -2.664062 14.980469 -9.15625 L 14.980469 -42.53125 C 14.980469 -42.78125 14.648438 -42.863281 14.398438 -42.863281 C 11.734375 -41.449219 7.574219 -39.785156 2.828125 -39.117188 C 2.496094 -39.117188 2.496094 -38.703125 2.746094 -38.535156 C 7.15625 -37.871094 8.488281 -37.039062 8.488281 -28.382812 L 8.488281 -9.15625 C 8.488281 -2.664062 8.238281 -0.417969 1.996094 -0.332031 C 1.5 -0.332031 1.5 0.25 1.996094 0.25 C 6.324219 0.25 7.074219 0 8.824219 0 Z M 8.824219 0 "/></g></g></g><g fill="#ffffff" fill-opacity="1"><g transform="translate(267.127986, 356.342601)"><g/></g></g><g fill="#ffffff" fill-opacity="1"><g transform="translate(287.602486, 356.342601)"><g><path d="M 63.835938 -0.332031 C 58.925781 -0.417969 56.929688 -3.496094 53.101562 -12.566406 L 32.792969 -60.507812 C 32.710938 -60.589844 32.542969 -60.507812 32.542969 -60.507812 C 31.542969 -58.59375 28.296875 -57.261719 26.050781 -56.597656 C 25.800781 -56.511719 25.882812 -56.429688 25.96875 -56.261719 C 27.132812 -54.015625 28.296875 -51.851562 29.378906 -49.6875 L 12.070312 -13.148438 C 8.738281 -6.160156 4.910156 -0.417969 0.664062 -0.332031 C 0.332031 -0.332031 0.332031 0.25 0.664062 0.25 C 3.910156 0.25 5.992188 0 7.324219 0 C 9.570312 0 13.234375 0.25 18.726562 0.25 C 19.226562 0.25 19.226562 -0.417969 18.726562 -0.417969 C 11.484375 -0.417969 9.820312 -6.242188 13.234375 -13.484375 L 14.816406 -16.8125 L 29.796875 -16.8125 C 35.621094 -16.8125 38.203125 -16.8125 43.695312 -16.8125 L 45.445312 -12.484375 C 49.273438 -3.496094 48.441406 -0.417969 41.78125 -0.332031 C 41.28125 -0.332031 41.28125 0.25 41.78125 0.25 C 47.273438 0.25 48.605469 0 50.769531 0 L 57.179688 0 C 58.761719 0 59.757812 0.25 63.835938 0.25 C 64.253906 0.25 64.253906 -0.332031 63.835938 -0.332031 Z M 29.796875 -17.8125 L 15.3125 -17.8125 L 29.878906 -48.691406 C 35.457031 -37.285156 39.203125 -27.882812 43.28125 -17.8125 Z M 29.796875 -17.8125 "/></g></g></g><g fill="#ffffff" fill-opacity="1"><g transform="translate(352.188711, 356.342601)"><g><path d="M 19.976562 0.832031 C 29.296875 0.832031 34.289062 -5.410156 38.617188 -10.652344 L 38.785156 -10.652344 C 38.785156 -6.992188 39.367188 -1.914062 39.949219 0.832031 L 40.53125 0.832031 C 42.363281 0 46.277344 -2.496094 50.605469 -2.746094 C 50.9375 -2.746094 50.9375 -3.328125 50.605469 -3.328125 C 46.359375 -3.746094 45.027344 -6.242188 45.027344 -13.816406 L 45.027344 -62.503906 C 45.027344 -62.839844 44.695312 -62.921875 44.527344 -62.753906 C 41.53125 -61.257812 35.457031 -59.011719 32.125 -58.011719 C 31.710938 -58.011719 31.792969 -57.59375 32.125 -57.511719 C 37.371094 -57.929688 38.453125 -55.015625 38.453125 -50.519531 L 38.453125 -38.121094 C 35.957031 -40.117188 31.042969 -42.863281 25.800781 -42.863281 C 13.648438 -42.863281 2.332031 -32.292969 2.332031 -18.226562 C 2.332031 -4.660156 11.902344 0.832031 19.976562 0.832031 Z M 23.886719 -2.664062 C 15.148438 -2.664062 9.65625 -10.238281 9.65625 -22.140625 C 9.65625 -33.792969 14.980469 -41.53125 23.886719 -41.53125 C 30.796875 -41.53125 36.207031 -36.539062 38.453125 -30.878906 L 38.453125 -11.734375 C 35.371094 -8.15625 31.292969 -2.664062 23.886719 -2.664062 Z M 23.886719 -2.664062 "/></g></g></g><g fill="#ffffff" fill-opacity="1"><g transform="translate(405.95509, 356.342601)"><g><path d="M 50.769531 -42.113281 C 47.523438 -42.113281 45.359375 -41.863281 44.027344 -41.863281 C 41.863281 -41.863281 38.367188 -42.113281 32.960938 -42.113281 C 32.375 -42.113281 32.375 -41.53125 32.960938 -41.53125 C 39.949219 -41.53125 41.613281 -36.289062 38.285156 -28.882812 L 28.046875 -5.742188 L 17.726562 -29.464844 C 13.648438 -38.785156 14.316406 -41.53125 20.722656 -41.53125 C 21.222656 -41.53125 21.222656 -42.113281 20.722656 -42.113281 C 15.480469 -42.113281 14.148438 -41.863281 12.152344 -41.863281 L 6.324219 -41.863281 C 4.828125 -41.863281 3.828125 -42.113281 0 -42.113281 C -0.332031 -42.113281 -0.332031 -41.53125 0 -41.53125 C 4.660156 -41.53125 6.660156 -38.785156 10.738281 -29.464844 L 23.96875 0.664062 L 26.132812 0.664062 L 39.367188 -28.882812 C 42.695312 -36.289062 46.527344 -41.53125 50.769531 -41.53125 C 51.101562 -41.53125 51.101562 -42.113281 50.769531 -42.113281 Z M 50.769531 -42.113281 "/></g></g></g><g fill="#ffffff" fill-opacity="1"><g transform="translate(456.475484, 356.342601)"><g><path d="M 24.46875 0.914062 C 37.621094 0.914062 47.941406 -9.070312 47.941406 -21.640625 C 47.941406 -34.375 39.203125 -42.863281 26.050781 -42.863281 C 12.652344 -42.863281 2.332031 -32.875 2.332031 -20.140625 C 2.332031 -7.40625 11.070312 0.914062 24.46875 0.914062 Z M 26.132812 -0.167969 C 15.898438 -0.167969 9.65625 -11.902344 9.65625 -23.386719 C 9.65625 -35.207031 16.394531 -41.449219 23.304688 -41.699219 C 34.042969 -42.199219 40.53125 -30.210938 40.53125 -18.476562 C 40.53125 -6.410156 33.375 -0.167969 26.132812 -0.167969 Z M 26.132812 -0.167969 "/></g></g></g><g fill="#ffffff" fill-opacity="1"><g transform="translate(506.746214, 356.342601)"><g><path d="M 23.386719 0.832031 C 34.289062 0.832031 42.363281 -7.988281 46.609375 -18.726562 C 46.691406 -19.144531 46.109375 -19.476562 45.777344 -19.144531 C 41.699219 -8.824219 34.789062 -3.828125 26.632812 -3.828125 C 15.648438 -3.828125 8.90625 -12.734375 8.90625 -24.554688 C 8.90625 -34.625 15.980469 -41.949219 25.21875 -41.949219 C 28.882812 -41.949219 30.296875 -41.367188 31.460938 -40.78125 C 32.042969 -33.457031 34.457031 -29.714844 37.703125 -29.714844 C 39.617188 -29.714844 41.199219 -30.878906 41.199219 -32.960938 C 41.199219 -37.785156 33.875 -42.863281 25.882812 -42.863281 C 14.148438 -42.863281 2.332031 -33.792969 2.332031 -20.390625 C 2.332031 -7.90625 10.988281 0.832031 23.386719 0.832031 Z M 23.386719 0.832031 "/></g></g></g><g fill="#ffffff" fill-opacity="1"><g transform="translate(553.687767, 356.342601)"><g><path d="M 16.894531 0.832031 C 25.96875 0.832031 32.542969 -7.492188 34.789062 -13.816406 L 34.875 -13.816406 L 34.875 -5.910156 C 34.875 -2.828125 36.121094 0.914062 41.199219 0.914062 C 44.613281 0.914062 47.109375 -1.332031 49.4375 -4.160156 C 49.523438 -4.578125 49.023438 -4.828125 48.855469 -4.660156 C 47.191406 -2.496094 46.027344 -1.746094 44.027344 -1.746094 C 42.199219 -1.746094 41.367188 -3.246094 41.367188 -5.492188 L 41.367188 -28.882812 C 41.367188 -41.28125 32.375 -42.863281 25.550781 -42.863281 C 16.3125 -42.863281 6.824219 -37.121094 6.824219 -31.960938 C 6.824219 -30.460938 8.074219 -29.046875 9.988281 -29.046875 C 13.566406 -29.046875 15.3125 -33.125 16.230469 -39.617188 C 17.726562 -40.285156 20.722656 -41.699219 24.386719 -41.699219 C 29.214844 -41.699219 34.875 -37.871094 34.875 -29.714844 L 34.875 -25.71875 C 12.984375 -22.140625 5.160156 -16.894531 5.160156 -9.320312 C 5.160156 -3.078125 9.988281 0.832031 16.894531 0.832031 Z M 20.390625 -3.414062 C 15.480469 -3.414062 11.484375 -6.574219 11.484375 -11.320312 C 11.484375 -15.980469 14.898438 -22.140625 34.875 -24.800781 L 34.875 -14.898438 C 32.210938 -9.070312 27.132812 -3.414062 20.390625 -3.414062 Z M 20.390625 -3.414062 "/></g></g></g><g fill="#ffffff" fill-opacity="1"><g transform="translate(604.041689, 356.342601)"><g><path d="M 23.386719 0.832031 C 34.289062 0.832031 42.363281 -7.988281 46.609375 -18.726562 C 46.691406 -19.144531 46.109375 -19.476562 45.777344 -19.144531 C 41.699219 -8.824219 34.789062 -3.828125 26.632812 -3.828125 C 15.648438 -3.828125 8.90625 -12.734375 8.90625 -24.554688 C 8.90625 -34.625 15.980469 -41.949219 25.21875 -41.949219 C 28.882812 -41.949219 30.296875 -41.367188 31.460938 -40.78125 C 32.042969 -33.457031 34.457031 -29.714844 37.703125 -29.714844 C 39.617188 -29.714844 41.199219 -30.878906 41.199219 -32.960938 C 41.199219 -37.785156 33.875 -42.863281 25.882812 -42.863281 C 14.148438 -42.863281 2.332031 -33.792969 2.332031 -20.390625 C 2.332031 -7.90625 10.988281 0.832031 23.386719 0.832031 Z M 23.386719 0.832031 "/></g></g></g><g fill="#ffffff" fill-opacity="1"><g transform="translate(650.983198, 356.342601)"><g><path d="M 11.152344 -50.019531 C 13.984375 -50.019531 15.730469 -51.851562 15.730469 -54.265625 C 15.730469 -56.761719 13.734375 -58.511719 11.152344 -58.511719 C 8.488281 -58.511719 6.660156 -56.597656 6.660156 -54.265625 C 6.660156 -51.769531 8.65625 -50.019531 11.152344 -50.019531 Z M 8.824219 0 L 14.566406 0 C 16.394531 0 17.144531 0.25 21.472656 0.25 C 21.972656 0.25 21.972656 -0.332031 21.472656 -0.332031 C 15.230469 -0.417969 14.980469 -2.664062 14.980469 -9.15625 L 14.980469 -42.53125 C 14.980469 -42.78125 14.648438 -42.863281 14.398438 -42.863281 C 11.734375 -41.449219 7.574219 -39.785156 2.828125 -39.117188 C 2.496094 -39.117188 2.496094 -38.703125 2.746094 -38.535156 C 7.15625 -37.871094 8.488281 -37.039062 8.488281 -28.382812 L 8.488281 -9.15625 C 8.488281 -2.664062 8.238281 -0.417969 1.996094 -0.332031 C 1.5 -0.332031 1.5 0.25 1.996094 0.25 C 6.324219 0.25 7.074219 0 8.824219 0 Z M 8.824219 0 "/></g></g></g><g fill="#ffffff" fill-opacity="1"><g transform="translate(674.370761, 356.342601)"><g><path d="M 16.894531 0.832031 C 25.96875 0.832031 32.542969 -7.492188 34.789062 -13.816406 L 34.875 -13.816406 L 34.875 -5.910156 C 34.875 -2.828125 36.121094 0.914062 41.199219 0.914062 C 44.613281 0.914062 47.109375 -1.332031 49.4375 -4.160156 C 49.523438 -4.578125 49.023438 -4.828125 48.855469 -4.660156 C 47.191406 -2.496094 46.027344 -1.746094 44.027344 -1.746094 C 42.199219 -1.746094 41.367188 -3.246094 41.367188 -5.492188 L 41.367188 -28.882812 C 41.367188 -41.28125 32.375 -42.863281 25.550781 -42.863281 C 16.3125 -42.863281 6.824219 -37.121094 6.824219 -31.960938 C 6.824219 -30.460938 8.074219 -29.046875 9.988281 -29.046875 C 13.566406 -29.046875 15.3125 -33.125 16.230469 -39.617188 C 17.726562 -40.285156 20.722656 -41.699219 24.386719 -41.699219 C 29.214844 -41.699219 34.875 -37.871094 34.875 -29.714844 L 34.875 -25.71875 C 12.984375 -22.140625 5.160156 -16.894531 5.160156 -9.320312 C 5.160156 -3.078125 9.988281 0.832031 16.894531 0.832031 Z M 20.390625 -3.414062 C 15.480469 -3.414062 11.484375 -6.574219 11.484375 -11.320312 C 11.484375 -15.980469 14.898438 -22.140625 34.875 -24.800781 L 34.875 -14.898438 C 32.210938 -9.070312 27.132812 -3.414062 20.390625 -3.414062 Z M 20.390625 -3.414062 "/></g></g></g></svg>