<?xml version="1.0" encoding="UTF-8"?>
<svg xmlns="http://www.w3.org/2000/svg" xmlns:xlink="http://www.w3.org/1999/xlink" width="96" zoomAndPan="magnify" viewBox="0 0 72 72" height="96" preserveAspectRatio="xMidYMid meet" version="1.0">
  <defs>
    <clipPath id="524083300d">
      <path d="M 36 0 C 16.117188 0 0 16.117188 0 36 C 0 55.882812 16.117188 72 36 72 C 55.882812 72 72 55.882812 72 36 C 72 16.117188 55.882812 0 36 0 Z M 36 0 " clip-rule="nonzero"></path>
    </clipPath>
    <clipPath id="2939038cbd">
      <path d="M 15.359375 6.867188 L 56.609375 6.867188 L 56.609375 64.617188 L 15.359375 64.617188 Z M 15.359375 6.867188 " clip-rule="nonzero"></path>
    </clipPath>
  </defs>
  <g clip-path="url(#524083300d)">
    <rect x="-7.2" width="86.4" fill="#000000" y="-7.2" height="86.4" fill-opacity="1"></rect>
  </g>
  <g clip-path="url(#2939038cbd)">
    <path fill="#ffffff" d="M 21.589844 62.730469 C 22.097656 61.949219 32.144531 47.628906 33 46.414062 C 33.855469 45.199219 34.828125 43.816406 35.925781 42.273438 C 37.019531 40.726562 38.152344 39.136719 39.324219 37.5 C 40.496094 35.867188 41.65625 34.253906 42.8125 32.664062 C 43.96875 31.074219 45.015625 29.617188 45.964844 28.296875 C 46.910156 26.976562 47.71875 25.859375 48.394531 24.941406 C 49.070312 24.027344 49.511719 23.417969 49.722656 23.121094 C 49.835938 22.910156 50.011719 22.804688 50.242188 22.804688 C 50.472656 22.804688 50.648438 22.894531 50.765625 23.074219 C 50.878906 23.253906 50.9375 23.449219 50.9375 23.660156 L 50.9375 50.484375 C 50.9375 50.664062 50.863281 50.824219 50.71875 50.957031 C 50.574219 51.09375 50.414062 51.160156 50.238281 51.160156 C 50.066406 51.160156 49.90625 51.101562 49.757812 50.980469 C 49.613281 50.863281 49.542969 50.695312 49.542969 50.484375 L 49.542969 25.730469 L 22.082031 64.4375 C 21.964844 64.617188 21.785156 64.707031 21.542969 64.707031 C 21.363281 64.707031 21.199219 64.640625 21.050781 64.503906 C 20.898438 64.371094 20.824219 64.214844 20.824219 64.035156 C 20.824219 63.945312 21.078125 63.507812 21.589844 62.730469 Z M 15.625 15.554688 C 15.789062 15.4375 15.960938 15.375 16.140625 15.375 C 16.351562 15.375 16.515625 15.464844 16.636719 15.648438 L 33.113281 38.78125 L 55.394531 7.183594 C 55.507812 6.972656 55.695312 6.867188 55.957031 6.867188 C 56.160156 6.867188 56.320312 6.9375 56.433594 7.070312 C 56.550781 7.207031 56.609375 7.363281 56.609375 7.542969 C 56.609375 7.722656 56.5625 7.875 56.472656 7.992188 L 25.953125 51.117188 C 25.835938 51.296875 25.65625 51.386719 25.414062 51.386719 C 25.234375 51.386719 25.070312 51.316406 24.917969 51.183594 C 24.769531 51.046875 24.695312 50.875 24.695312 50.664062 C 24.695312 50.546875 24.867188 50.230469 25.210938 49.71875 C 25.558594 49.207031 25.984375 48.585938 26.496094 47.851562 C 27.007812 47.117188 27.574219 46.335938 28.207031 45.511719 C 28.835938 44.6875 29.429688 43.890625 29.984375 43.125 C 30.542969 42.359375 31.027344 41.691406 31.449219 41.121094 C 31.867188 40.550781 32.136719 40.160156 32.257812 39.953125 L 16.726562 18.210938 L 16.726562 50.710938 C 16.726562 50.890625 16.667969 51.046875 16.546875 51.183594 C 16.429688 51.316406 16.277344 51.386719 16.097656 51.386719 C 15.917969 51.386719 15.757812 51.316406 15.625 51.183594 C 15.488281 51.046875 15.421875 50.890625 15.421875 50.710938 L 15.421875 16.277344 C 15.390625 16.246094 15.378906 16.15625 15.378906 16.007812 C 15.378906 15.828125 15.460938 15.675781 15.625 15.554688 Z M 15.625 15.554688 " fill-opacity="1" fill-rule="nonzero"></path>
  </g>
</svg>
